<?xml version="1.0" encoding="utf-8"?>
<!-- Generator: Adobe Illustrator 23.0.2, SVG Export Plug-In . SVG Version: 6.00 Build 0)  -->
<svg version="1.1" id="Ebene_1" xmlns="http://www.w3.org/2000/svg" xmlns:xlink="http://www.w3.org/1999/xlink" x="0px" y="0px"
	 viewBox="0 0 400 200" style="enable-background:new 0 0 400 200;" xml:space="preserve">
<style type="text/css">
	.st0{fill:#FFFFFF;}
</style>
<g>
	<path class="st0" d="M51.91,146.47c-0.3,1.38-1.71,2.43-5.37,2.43l0.99-4.98C51.21,143.93,52.25,144.83,51.91,146.47 M46.73,154.38
		c0.52,0,1.4,0.04,1.75,0.13c1.9,0.4,2.35,1.8,2.05,3.15c-0.39,1.85-1.61,3.15-4.64,3.15h-1.76l1.3-6.43H46.73z M48.54,138.9h-7.68
		l-5.69,27.85h8.63c7.66,0,12.91-1.89,14.21-8.37c0.82-4.05-1.02-6.57-3.57-7.42c1.6-0.54,3.4-2.11,3.83-4.23
		C59.4,141.2,55.25,138.9,48.54,138.9"/>
	<polygon class="st0" points="65.05,138.9 59.4,166.75 77.91,166.75 80.54,160.6 68.42,160.6 69.54,155.07 77,155.07 78.25,148.92 
		70.79,148.92 71.57,145.01 81.35,145.01 82.6,138.9 	"/>
	<path class="st0" d="M132.43,147.35l1.9-6.38c0,0-2.93-2.38-8.37-2.38c-7.85,0-14.79,4.27-16.69,13.74
		c-1.9,9.52,4.01,14.73,11.82,14.73c3.75,0,7.07-1.08,10.78-3.82l-2.33-5.21c0,0-2.89,2.83-6.86,2.83c-3.97,0-6.64-2.83-5.56-8.09
		c1.17-5.75,5.39-8.08,8.76-8.08C130.44,144.7,132.43,147.35,132.43,147.35"/>
	<polygon class="st0" points="155.55,138.9 153.61,148.43 145.29,148.43 147.23,138.9 139.51,138.9 133.86,166.75 141.58,166.75 
		144.04,154.58 152.36,154.58 149.9,166.75 157.67,166.75 163.32,138.9 	"/>
	<polygon class="st0" points="167.26,138.9 164.65,145.01 170.77,145.01 166.37,166.75 174.05,166.75 178.45,145.01 183.58,145.01 
		184.83,138.9 	"/>
	<polygon class="st0" points="188.07,138.9 182.42,166.75 200.92,166.75 203.55,160.6 191.43,160.6 192.55,155.07 200.01,155.07 
		201.26,148.92 193.8,148.92 194.58,145.01 204.37,145.01 205.62,138.9 	"/>
	<path class="st0" d="M251.84,147.35l1.9-6.38c0,0-3.36-2.38-8.8-2.38c-8.11,0-15.05,4.27-16.95,13.74
		c-1.9,9.52,3.62,14.73,12.12,14.73c3.58,0,7.59-1.26,11.04-3.23l2.55-12.44h-7.76l-1.85,9.12c-0.82,0.22-1.81,0.36-2.72,0.36
		c-3.84,0-6.73-2.74-5.61-8.17c1.12-5.43,5.3-7.99,9.1-7.99C249.42,144.7,251.84,147.35,251.84,147.35"/>
	<path class="st0" d="M303.4,152.78c-0.91,4.36-4.27,7.82-9.96,7.82h-0.73l3.19-15.63h0.91C302.5,144.97,304.27,148.43,303.4,152.78
		 M311.08,153.28c1.6-7.68-2.33-14.37-14.06-14.37h-7.68l-5.65,27.85h8.54C303.97,166.75,309.53,160.91,311.08,153.28"/>
	<polygon class="st0" points="317.22,138.9 311.57,166.75 330.08,166.75 332.71,160.6 320.59,160.6 321.71,155.07 329.17,155.07 
		330.42,148.92 322.96,148.92 323.73,145.01 333.52,145.01 334.77,138.9 	"/>
	<polygon class="st0" points="356.97,138.9 354.29,152.6 341.52,138.9 340.23,138.9 334.54,166.75 342.3,166.75 344.97,152.96 
		357.45,166.75 359.07,166.75 364.73,138.9 	"/>
	<path class="st0" d="M218.63,144.55c3.62,0,6.11,2.24,6.11,2.24l1.77-5.96c0,0-2.54-2.24-8.31-2.24c-3.26,0-6.78,0.94-8.82,3.39
		c-0.79,0.95-1.36,2.12-1.6,3.56c-0.57,3.44,0.81,5.55,2.66,7.09c2.24,1.87,5.17,2.91,6.12,4.48c0.27,0.45,0.4,0.96,0.28,1.53
		c-0.67,3.02-6.3,2.93-9.23,0.58l-2.64,6.14l0,0c1.15,0.54,2.56,1.06,4.21,1.38c1.01,0.2,2.1,0.32,3.28,0.32
		c3.86,0,7.57-0.86,10.01-3.17c2.86-2.64,2.18-6.79,2.18-6.79c-0.83-7.13-9.86-6.85-9.07-10.68
		C215.83,145.23,217.3,144.55,218.63,144.55"/>
	<path class="st0" d="M98.81,146.75c-0.36,1.97-2.06,3.16-5.14,3.16l1.21-6.03C97.68,143.89,99.14,145.05,98.81,146.75
		 M99.74,153.82c1.55-0.27,4.7-1.84,5.52-5.84c1.16-5.7-3.15-9.07-10.7-9.07h-6.43l-5.65,27.85h7.77l2.2-10.82
		c1.94,0,2.76,1.26,3.28,2.87c1.04,3.28,2.24,8.35,9.19,8.18l2.67-5.75C101.6,161.54,103.36,155.25,99.74,153.82"/>
	<path class="st0" d="M279.14,149.88c-0.97-8.98-14.56-11.29-14.56-11.29l-10.87,28.16h7.62l7.5-8l0.08-0.54l-4.58,0l3.94-10.85
		c0,0,3.96,1.3,4.2,6.54c0.4,5.02,0.88,12.84,0.88,12.84h7.59C280.94,166.75,279.77,155.14,279.14,149.88"/>
	<polygon class="st0" points="172.69,32.16 161.38,48.76 153.87,39.87 135.41,71.19 112.04,78.99 95.07,58.93 42.51,121.06 
		95.74,121.06 100.02,111.05 65.39,111.05 95.07,74.01 108.77,90.63 137.11,81.18 142.15,79.5 155.33,57.12 162.24,65.29 
		173.55,48.26 233.46,121.06 247.89,121.06 	"/>
</g>
<polygon class="st0" points="161.38,48.76 153.87,39.87 135.41,71.19 112.04,78.98 95.07,58.93 42.51,121.06 95.74,121.06 
	100.02,111.05 65.39,111.05 95.07,74.01 108.77,90.63 137.11,81.18 142.15,79.5 155.33,57.12 162.24,65.29 173.55,48.26 
	233.46,121.06 247.89,121.06 172.69,32.16 "/>
</svg>
